<mxfile host="app.diagrams.net" modified="2023-05-08T18:28:18.516Z" agent="Mozilla/5.0 (Windows NT 10.0; Win64; x64) AppleWebKit/537.36 (KHTML, like Gecko) Chrome/112.0.0.0 Safari/537.36" etag="jRze4ZRzFNHHPwYi3B0a" version="21.2.9" type="google">
  <diagram name="Trang-1" id="hP8aP06UPdepOoXLbuTL">
    <mxGraphModel grid="1" page="1" gridSize="10" guides="1" tooltips="1" connect="1" arrows="1" fold="1" pageScale="1" pageWidth="827" pageHeight="1169" math="0" shadow="0">
      <root>
        <mxCell id="0" />
        <mxCell id="1" parent="0" />
        <mxCell id="0FFhAn88laq-6rUhL9Ml-1" value="" style="edgeStyle=orthogonalEdgeStyle;rounded=0;orthogonalLoop=1;jettySize=auto;html=1;" edge="1" parent="1" source="0FFhAn88laq-6rUhL9Ml-2" target="0FFhAn88laq-6rUhL9Ml-4">
          <mxGeometry relative="1" as="geometry" />
        </mxCell>
        <mxCell id="0FFhAn88laq-6rUhL9Ml-2" value="Bắt đầu" style="rounded=1;whiteSpace=wrap;html=1;fillColor=#dae8fc;strokeColor=#6c8ebf;" vertex="1" parent="1">
          <mxGeometry x="60" y="51" width="100" height="30" as="geometry" />
        </mxCell>
        <mxCell id="0FFhAn88laq-6rUhL9Ml-3" value="" style="edgeStyle=orthogonalEdgeStyle;rounded=0;orthogonalLoop=1;jettySize=auto;html=1;" edge="1" parent="1" source="0FFhAn88laq-6rUhL9Ml-4" target="0FFhAn88laq-6rUhL9Ml-6">
          <mxGeometry relative="1" as="geometry" />
        </mxCell>
        <mxCell id="0FFhAn88laq-6rUhL9Ml-4" value="Người bệnh đến lấy số thứ tự" style="rounded=0;whiteSpace=wrap;html=1;" vertex="1" parent="1">
          <mxGeometry x="240" y="51" width="120" height="30" as="geometry" />
        </mxCell>
        <mxCell id="0FFhAn88laq-6rUhL9Ml-5" value="" style="edgeStyle=orthogonalEdgeStyle;rounded=0;orthogonalLoop=1;jettySize=auto;html=1;" edge="1" parent="1" source="0FFhAn88laq-6rUhL9Ml-6" target="0FFhAn88laq-6rUhL9Ml-8">
          <mxGeometry relative="1" as="geometry" />
        </mxCell>
        <mxCell id="0FFhAn88laq-6rUhL9Ml-6" value="Nhân viên nhập &lt;br&gt;liệu thông tin" style="shape=trapezoid;perimeter=trapezoidPerimeter;whiteSpace=wrap;html=1;fixedSize=1;" vertex="1" parent="1">
          <mxGeometry x="425" y="51" width="135" height="30" as="geometry" />
        </mxCell>
        <mxCell id="0FFhAn88laq-6rUhL9Ml-7" style="edgeStyle=orthogonalEdgeStyle;rounded=0;orthogonalLoop=1;jettySize=auto;html=1;entryX=0.5;entryY=0;entryDx=0;entryDy=0;" edge="1" parent="1" source="0FFhAn88laq-6rUhL9Ml-8" target="0FFhAn88laq-6rUhL9Ml-11">
          <mxGeometry relative="1" as="geometry" />
        </mxCell>
        <mxCell id="0FFhAn88laq-6rUhL9Ml-8" value="Thông tin&lt;br&gt;&amp;nbsp;bệnh nhân" style="shape=parallelogram;perimeter=parallelogramPerimeter;whiteSpace=wrap;html=1;fixedSize=1;" vertex="1" parent="1">
          <mxGeometry x="610" y="51" width="110" height="30" as="geometry" />
        </mxCell>
        <mxCell id="0FFhAn88laq-6rUhL9Ml-9" value="" style="edgeStyle=orthogonalEdgeStyle;rounded=0;orthogonalLoop=1;jettySize=auto;html=1;" edge="1" parent="1" source="0FFhAn88laq-6rUhL9Ml-11" target="0FFhAn88laq-6rUhL9Ml-17">
          <mxGeometry relative="1" as="geometry" />
        </mxCell>
        <mxCell id="0FFhAn88laq-6rUhL9Ml-10" style="edgeStyle=orthogonalEdgeStyle;rounded=0;orthogonalLoop=1;jettySize=auto;html=1;exitX=0;exitY=0.5;exitDx=0;exitDy=0;entryX=1;entryY=0.5;entryDx=0;entryDy=0;" edge="1" parent="1" source="0FFhAn88laq-6rUhL9Ml-11" target="0FFhAn88laq-6rUhL9Ml-14">
          <mxGeometry relative="1" as="geometry" />
        </mxCell>
        <mxCell id="0FFhAn88laq-6rUhL9Ml-11" value="" style="rounded=0;whiteSpace=wrap;html=1;" vertex="1" parent="1">
          <mxGeometry x="598" y="120" width="135" height="50" as="geometry" />
        </mxCell>
        <mxCell id="0FFhAn88laq-6rUhL9Ml-12" value="Phần mềm quản lý bệnh nhân" style="rounded=1;whiteSpace=wrap;html=1;" vertex="1" parent="1">
          <mxGeometry x="605.5" y="130" width="120" height="30" as="geometry" />
        </mxCell>
        <mxCell id="0FFhAn88laq-6rUhL9Ml-13" style="edgeStyle=orthogonalEdgeStyle;rounded=0;orthogonalLoop=1;jettySize=auto;html=1;entryX=1;entryY=0.5;entryDx=0;entryDy=0;" edge="1" parent="1" source="0FFhAn88laq-6rUhL9Ml-14" target="0FFhAn88laq-6rUhL9Ml-16">
          <mxGeometry relative="1" as="geometry" />
        </mxCell>
        <mxCell id="0FFhAn88laq-6rUhL9Ml-14" value="Cấp số nhập viện và sổ nhập viện" style="rounded=0;whiteSpace=wrap;html=1;" vertex="1" parent="1">
          <mxGeometry x="430" y="130" width="120" height="31" as="geometry" />
        </mxCell>
        <mxCell id="0FFhAn88laq-6rUhL9Ml-15" value="" style="edgeStyle=orthogonalEdgeStyle;rounded=0;orthogonalLoop=1;jettySize=auto;html=1;" edge="1" parent="1" source="0FFhAn88laq-6rUhL9Ml-16" target="0FFhAn88laq-6rUhL9Ml-19">
          <mxGeometry relative="1" as="geometry" />
        </mxCell>
        <mxCell id="0FFhAn88laq-6rUhL9Ml-16" value="Người bệnh nộp số thứ tự tại phòng khám" style="rounded=0;whiteSpace=wrap;html=1;" vertex="1" parent="1">
          <mxGeometry x="236" y="130" width="130" height="31" as="geometry" />
        </mxCell>
        <mxCell id="0FFhAn88laq-6rUhL9Ml-17" value="CSDL bệnh &lt;br&gt;nhân" style="shape=dataStorage;whiteSpace=wrap;html=1;fixedSize=1;" vertex="1" parent="1">
          <mxGeometry x="762.5" y="125" width="110" height="40" as="geometry" />
        </mxCell>
        <mxCell id="M5cMB6g8N9_jHiXpr-N1-1" style="edgeStyle=orthogonalEdgeStyle;rounded=0;orthogonalLoop=1;jettySize=auto;html=1;" edge="1" parent="1" source="0FFhAn88laq-6rUhL9Ml-19" target="0FFhAn88laq-6rUhL9Ml-21">
          <mxGeometry relative="1" as="geometry" />
        </mxCell>
        <mxCell id="0FFhAn88laq-6rUhL9Ml-19" value="Bác sĩ nhận thông &lt;br&gt;tin BN khám bệnh" style="shape=parallelogram;perimeter=parallelogramPerimeter;whiteSpace=wrap;html=1;fixedSize=1;rounded=0;" vertex="1" parent="1">
          <mxGeometry x="52" y="127.75" width="150" height="34.5" as="geometry" />
        </mxCell>
        <mxCell id="0FFhAn88laq-6rUhL9Ml-20" value="" style="edgeStyle=orthogonalEdgeStyle;rounded=0;orthogonalLoop=1;jettySize=auto;html=1;" edge="1" parent="1" source="0FFhAn88laq-6rUhL9Ml-21" target="0FFhAn88laq-6rUhL9Ml-23">
          <mxGeometry relative="1" as="geometry" />
        </mxCell>
        <mxCell id="0FFhAn88laq-6rUhL9Ml-21" value="Bác sỹ khám bệnh" style="whiteSpace=wrap;html=1;rounded=0;" vertex="1" parent="1">
          <mxGeometry x="67" y="212.25" width="120" height="28.75" as="geometry" />
        </mxCell>
        <mxCell id="0FFhAn88laq-6rUhL9Ml-22" value="" style="edgeStyle=orthogonalEdgeStyle;rounded=0;orthogonalLoop=1;jettySize=auto;html=1;" edge="1" parent="1" source="0FFhAn88laq-6rUhL9Ml-23" target="0FFhAn88laq-6rUhL9Ml-27">
          <mxGeometry relative="1" as="geometry" />
        </mxCell>
        <mxCell id="0FFhAn88laq-6rUhL9Ml-23" value="Chỉ định các xét nghiệm, chụp phim, siêu âm,..." style="whiteSpace=wrap;html=1;rounded=0;" vertex="1" parent="1">
          <mxGeometry x="256" y="199.81" width="120" height="53.63" as="geometry" />
        </mxCell>
        <mxCell id="M5cMB6g8N9_jHiXpr-N1-4" style="edgeStyle=orthogonalEdgeStyle;rounded=0;orthogonalLoop=1;jettySize=auto;html=1;" edge="1" parent="1" source="0FFhAn88laq-6rUhL9Ml-25" target="0FFhAn88laq-6rUhL9Ml-62">
          <mxGeometry relative="1" as="geometry" />
        </mxCell>
        <mxCell id="0FFhAn88laq-6rUhL9Ml-25" value="Nộp tạm ứng theo phiếu chỉ định&amp;nbsp;" style="whiteSpace=wrap;html=1;rounded=0;" vertex="1" parent="1">
          <mxGeometry x="409.75" y="303.29999999999995" width="150" height="33.41" as="geometry" />
        </mxCell>
        <mxCell id="0FFhAn88laq-6rUhL9Ml-26" style="edgeStyle=orthogonalEdgeStyle;rounded=0;orthogonalLoop=1;jettySize=auto;html=1;entryX=0;entryY=0.5;entryDx=0;entryDy=0;" edge="1" parent="1" source="0FFhAn88laq-6rUhL9Ml-27" target="0FFhAn88laq-6rUhL9Ml-30">
          <mxGeometry relative="1" as="geometry" />
        </mxCell>
        <mxCell id="0FFhAn88laq-6rUhL9Ml-27" value="Thông tin chỉ &lt;br&gt;định của bác sĩ" style="shape=parallelogram;perimeter=parallelogramPerimeter;whiteSpace=wrap;html=1;fixedSize=1;" vertex="1" parent="1">
          <mxGeometry x="427.25" y="208.44" width="120" height="36.37" as="geometry" />
        </mxCell>
        <mxCell id="0FFhAn88laq-6rUhL9Ml-28" style="edgeStyle=orthogonalEdgeStyle;rounded=0;orthogonalLoop=1;jettySize=auto;html=1;entryX=0;entryY=0.5;entryDx=0;entryDy=0;" edge="1" parent="1" source="0FFhAn88laq-6rUhL9Ml-30" target="0FFhAn88laq-6rUhL9Ml-32">
          <mxGeometry relative="1" as="geometry" />
        </mxCell>
        <mxCell id="0FFhAn88laq-6rUhL9Ml-29" style="edgeStyle=orthogonalEdgeStyle;rounded=0;orthogonalLoop=1;jettySize=auto;html=1;entryX=0.5;entryY=0;entryDx=0;entryDy=0;entryPerimeter=0;" edge="1" parent="1" source="0FFhAn88laq-6rUhL9Ml-30" target="0FFhAn88laq-6rUhL9Ml-34">
          <mxGeometry relative="1" as="geometry" />
        </mxCell>
        <mxCell id="0FFhAn88laq-6rUhL9Ml-32" value="CSDL bệnh &lt;br&gt;nhân" style="shape=dataStorage;whiteSpace=wrap;html=1;fixedSize=1;" vertex="1" parent="1">
          <mxGeometry x="763" y="204.81" width="110" height="40" as="geometry" />
        </mxCell>
        <mxCell id="0FFhAn88laq-6rUhL9Ml-33" style="edgeStyle=orthogonalEdgeStyle;rounded=0;orthogonalLoop=1;jettySize=auto;html=1;entryX=1;entryY=0.5;entryDx=0;entryDy=0;" edge="1" parent="1" source="0FFhAn88laq-6rUhL9Ml-34" target="0FFhAn88laq-6rUhL9Ml-25">
          <mxGeometry relative="1" as="geometry" />
        </mxCell>
        <mxCell id="0FFhAn88laq-6rUhL9Ml-34" value="Phiếu chỉ định &lt;br&gt;của bác sĩ" style="strokeWidth=2;html=1;shape=mxgraph.flowchart.multi-document;whiteSpace=wrap;" vertex="1" parent="1">
          <mxGeometry x="616.5" y="289.99999999999994" width="102.5" height="60" as="geometry" />
        </mxCell>
        <mxCell id="0FFhAn88laq-6rUhL9Ml-35" style="edgeStyle=orthogonalEdgeStyle;rounded=0;orthogonalLoop=1;jettySize=auto;html=1;entryX=0;entryY=0.5;entryDx=0;entryDy=0;" edge="1" parent="1" source="0FFhAn88laq-6rUhL9Ml-36" target="0FFhAn88laq-6rUhL9Ml-64">
          <mxGeometry relative="1" as="geometry" />
        </mxCell>
        <mxCell id="0FFhAn88laq-6rUhL9Ml-36" value="Biên lai xác nhận đã thu" style="strokeWidth=2;html=1;shape=mxgraph.flowchart.multi-document;whiteSpace=wrap;" vertex="1" parent="1">
          <mxGeometry x="420.25" y="375" width="88" height="60" as="geometry" />
        </mxCell>
        <mxCell id="0FFhAn88laq-6rUhL9Ml-37" value="1" style="text;html=1;align=center;verticalAlign=middle;resizable=0;points=[];autosize=1;strokeColor=none;fillColor=none;" vertex="1" parent="1">
          <mxGeometry x="188" y="31" width="20" height="20" as="geometry" />
        </mxCell>
        <mxCell id="0FFhAn88laq-6rUhL9Ml-38" value="2" style="text;html=1;align=center;verticalAlign=middle;resizable=0;points=[];autosize=1;strokeColor=none;fillColor=none;" vertex="1" parent="1">
          <mxGeometry x="388" y="31" width="20" height="20" as="geometry" />
        </mxCell>
        <mxCell id="0FFhAn88laq-6rUhL9Ml-39" value="3" style="text;html=1;align=center;verticalAlign=middle;resizable=0;points=[];autosize=1;strokeColor=none;fillColor=none;" vertex="1" parent="1">
          <mxGeometry x="574.5" y="31" width="20" height="20" as="geometry" />
        </mxCell>
        <mxCell id="0FFhAn88laq-6rUhL9Ml-40" value="4" style="text;html=1;align=center;verticalAlign=middle;resizable=0;points=[];autosize=1;strokeColor=none;fillColor=none;" vertex="1" parent="1">
          <mxGeometry x="682.75" y="91" width="20" height="20" as="geometry" />
        </mxCell>
        <mxCell id="0FFhAn88laq-6rUhL9Ml-41" value="5" style="text;html=1;align=center;verticalAlign=middle;resizable=0;points=[];autosize=1;strokeColor=none;fillColor=none;" vertex="1" parent="1">
          <mxGeometry x="564" y="110" width="20" height="20" as="geometry" />
        </mxCell>
        <mxCell id="0FFhAn88laq-6rUhL9Ml-42" value="6" style="text;html=1;align=center;verticalAlign=middle;resizable=0;points=[];autosize=1;strokeColor=none;fillColor=none;" vertex="1" parent="1">
          <mxGeometry x="388" y="111" width="20" height="20" as="geometry" />
        </mxCell>
        <mxCell id="0FFhAn88laq-6rUhL9Ml-43" value="7" style="text;html=1;align=center;verticalAlign=middle;resizable=0;points=[];autosize=1;strokeColor=none;fillColor=none;" vertex="1" parent="1">
          <mxGeometry x="208" y="120" width="20" height="20" as="geometry" />
        </mxCell>
        <mxCell id="0FFhAn88laq-6rUhL9Ml-44" value="&lt;div style=&quot;text-align: center&quot;&gt;&lt;span&gt;&lt;font face=&quot;helvetica&quot;&gt;8&lt;/font&gt;&lt;/span&gt;&lt;/div&gt;" style="text;whiteSpace=wrap;html=1;" vertex="1" parent="1">
          <mxGeometry x="130" y="165" width="30" height="30" as="geometry" />
        </mxCell>
        <mxCell id="0FFhAn88laq-6rUhL9Ml-45" value="9" style="text;html=1;align=center;verticalAlign=middle;resizable=0;points=[];autosize=1;strokeColor=none;fillColor=none;" vertex="1" parent="1">
          <mxGeometry x="211.5" y="199.81" width="20" height="20" as="geometry" />
        </mxCell>
        <mxCell id="0FFhAn88laq-6rUhL9Ml-46" value="&lt;div style=&quot;text-align: center&quot;&gt;&lt;span&gt;&lt;font face=&quot;helvetica&quot;&gt;10&lt;/font&gt;&lt;/span&gt;&lt;/div&gt;" style="text;whiteSpace=wrap;html=1;" vertex="1" parent="1">
          <mxGeometry x="395" y="195" width="30" height="30" as="geometry" />
        </mxCell>
        <mxCell id="0FFhAn88laq-6rUhL9Ml-47" value="11" style="text;html=1;align=center;verticalAlign=middle;resizable=0;points=[];autosize=1;strokeColor=none;fillColor=none;" vertex="1" parent="1">
          <mxGeometry x="554" y="205" width="30" height="20" as="geometry" />
        </mxCell>
        <mxCell id="0FFhAn88laq-6rUhL9Ml-48" value="12" style="text;html=1;align=center;verticalAlign=middle;resizable=0;points=[];autosize=1;strokeColor=none;fillColor=none;" vertex="1" parent="1">
          <mxGeometry x="664.75" y="253.44" width="30" height="20" as="geometry" />
        </mxCell>
        <mxCell id="0FFhAn88laq-6rUhL9Ml-49" value="13" style="text;html=1;align=center;verticalAlign=middle;resizable=0;points=[];autosize=1;strokeColor=none;fillColor=none;" vertex="1" parent="1">
          <mxGeometry x="574" y="302.3" width="30" height="20" as="geometry" />
        </mxCell>
        <mxCell id="0FFhAn88laq-6rUhL9Ml-50" value="14" style="text;html=1;align=center;verticalAlign=middle;resizable=0;points=[];autosize=1;strokeColor=none;fillColor=none;" vertex="1" parent="1">
          <mxGeometry x="360" y="302.3" width="30" height="20" as="geometry" />
        </mxCell>
        <mxCell id="0FFhAn88laq-6rUhL9Ml-51" value="16" style="text;html=1;align=center;verticalAlign=middle;resizable=0;points=[];autosize=1;strokeColor=none;fillColor=none;" vertex="1" parent="1">
          <mxGeometry x="366" y="380" width="30" height="20" as="geometry" />
        </mxCell>
        <mxCell id="0FFhAn88laq-6rUhL9Ml-52" value="24" style="text;html=1;align=center;verticalAlign=middle;resizable=0;points=[];autosize=1;strokeColor=none;fillColor=none;" vertex="1" parent="1">
          <mxGeometry x="413.5" y="608.25" width="23" height="18" as="geometry" />
        </mxCell>
        <mxCell id="0FFhAn88laq-6rUhL9Ml-53" value="Có&lt;br&gt;24a" style="text;html=1;align=center;verticalAlign=middle;resizable=0;points=[];autosize=1;strokeColor=none;fillColor=none;" vertex="1" parent="1">
          <mxGeometry x="589" y="615.14" width="40" height="30" as="geometry" />
        </mxCell>
        <mxCell id="0FFhAn88laq-6rUhL9Ml-54" value="Không&lt;br&gt;24b" style="text;html=1;align=center;verticalAlign=middle;resizable=0;points=[];autosize=1;strokeColor=none;fillColor=none;" vertex="1" parent="1">
          <mxGeometry x="523.5" y="660" width="50" height="30" as="geometry" />
        </mxCell>
        <mxCell id="0FFhAn88laq-6rUhL9Ml-55" style="edgeStyle=orthogonalEdgeStyle;rounded=0;orthogonalLoop=1;jettySize=auto;html=1;exitX=0;exitY=0.5;exitDx=0;exitDy=0;entryX=0.821;entryY=0.518;entryDx=0;entryDy=0;entryPerimeter=0;" edge="1" parent="1" source="0FFhAn88laq-6rUhL9Ml-57" target="0FFhAn88laq-6rUhL9Ml-59">
          <mxGeometry relative="1" as="geometry" />
        </mxCell>
        <mxCell id="0FFhAn88laq-6rUhL9Ml-56" style="edgeStyle=orthogonalEdgeStyle;rounded=0;orthogonalLoop=1;jettySize=auto;html=1;exitX=1;exitY=0.5;exitDx=0;exitDy=0;entryX=0;entryY=0.5;entryDx=0;entryDy=0;entryPerimeter=0;" edge="1" parent="1" source="0FFhAn88laq-6rUhL9Ml-57" target="0FFhAn88laq-6rUhL9Ml-36">
          <mxGeometry relative="1" as="geometry" />
        </mxCell>
        <mxCell id="0FFhAn88laq-6rUhL9Ml-59" value="CSDL &lt;br&gt;thu ngân" style="shape=dataStorage;whiteSpace=wrap;html=1;fixedSize=1;flipH=1;" vertex="1" parent="1">
          <mxGeometry x="30" y="385" width="110" height="40" as="geometry" />
        </mxCell>
        <mxCell id="0FFhAn88laq-6rUhL9Ml-60" value="15" style="text;html=1;align=center;verticalAlign=middle;resizable=0;points=[];autosize=1;strokeColor=none;fillColor=none;" vertex="1" parent="1">
          <mxGeometry x="288.5" y="350" width="30" height="20" as="geometry" />
        </mxCell>
        <mxCell id="0FFhAn88laq-6rUhL9Ml-61" style="edgeStyle=orthogonalEdgeStyle;rounded=0;orthogonalLoop=1;jettySize=auto;html=1;entryX=0.5;entryY=0;entryDx=0;entryDy=0;" edge="1" parent="1" source="0FFhAn88laq-6rUhL9Ml-62" target="0FFhAn88laq-6rUhL9Ml-57">
          <mxGeometry relative="1" as="geometry" />
        </mxCell>
        <mxCell id="0FFhAn88laq-6rUhL9Ml-62" value="Thông tin &lt;br&gt;tạm ứng" style="shape=parallelogram;perimeter=parallelogramPerimeter;whiteSpace=wrap;html=1;fixedSize=1;" vertex="1" parent="1">
          <mxGeometry x="224.5" y="302.3" width="120" height="36.37" as="geometry" />
        </mxCell>
        <mxCell id="M5cMB6g8N9_jHiXpr-N1-7" style="edgeStyle=orthogonalEdgeStyle;rounded=0;orthogonalLoop=1;jettySize=auto;html=1;" edge="1" parent="1" source="0FFhAn88laq-6rUhL9Ml-64" target="0FFhAn88laq-6rUhL9Ml-84">
          <mxGeometry relative="1" as="geometry" />
        </mxCell>
        <mxCell id="0FFhAn88laq-6rUhL9Ml-64" value="Làm các XN theo hướng dẫn" style="whiteSpace=wrap;html=1;strokeWidth=2;" vertex="1" parent="1">
          <mxGeometry x="607.75" y="390" width="120" height="30" as="geometry" />
        </mxCell>
        <mxCell id="M5cMB6g8N9_jHiXpr-N1-11" value="" style="edgeStyle=orthogonalEdgeStyle;rounded=0;orthogonalLoop=1;jettySize=auto;html=1;" edge="1" parent="1" source="0FFhAn88laq-6rUhL9Ml-66" target="0FFhAn88laq-6rUhL9Ml-69">
          <mxGeometry relative="1" as="geometry" />
        </mxCell>
        <mxCell id="0FFhAn88laq-6rUhL9Ml-66" value="Thông tin XN" style="shape=parallelogram;perimeter=parallelogramPerimeter;whiteSpace=wrap;html=1;fixedSize=1;rounded=0;" vertex="1" parent="1">
          <mxGeometry x="260" y="512.75" width="150" height="34.5" as="geometry" />
        </mxCell>
        <mxCell id="0FFhAn88laq-6rUhL9Ml-67" style="edgeStyle=orthogonalEdgeStyle;rounded=0;orthogonalLoop=1;jettySize=auto;html=1;" edge="1" parent="1" source="0FFhAn88laq-6rUhL9Ml-69" target="0FFhAn88laq-6rUhL9Ml-71">
          <mxGeometry relative="1" as="geometry" />
        </mxCell>
        <mxCell id="0FFhAn88laq-6rUhL9Ml-68" style="edgeStyle=orthogonalEdgeStyle;rounded=0;orthogonalLoop=1;jettySize=auto;html=1;exitX=0.5;exitY=1;exitDx=0;exitDy=0;entryX=0.5;entryY=0;entryDx=0;entryDy=0;entryPerimeter=0;" edge="1" parent="1" source="0FFhAn88laq-6rUhL9Ml-69" target="0FFhAn88laq-6rUhL9Ml-73">
          <mxGeometry relative="1" as="geometry" />
        </mxCell>
        <mxCell id="0FFhAn88laq-6rUhL9Ml-71" value="CSDL bệnh &lt;br&gt;nhân" style="shape=dataStorage;whiteSpace=wrap;html=1;fixedSize=1;flipH=1;" vertex="1" parent="1">
          <mxGeometry x="-66" y="510" width="110" height="40" as="geometry" />
        </mxCell>
        <mxCell id="M5cMB6g8N9_jHiXpr-N1-12" style="edgeStyle=orthogonalEdgeStyle;rounded=0;orthogonalLoop=1;jettySize=auto;html=1;" edge="1" parent="1" source="0FFhAn88laq-6rUhL9Ml-73" target="0FFhAn88laq-6rUhL9Ml-75">
          <mxGeometry relative="1" as="geometry" />
        </mxCell>
        <mxCell id="0FFhAn88laq-6rUhL9Ml-73" value="Kết quả XN" style="strokeWidth=2;html=1;shape=mxgraph.flowchart.multi-document;whiteSpace=wrap;" vertex="1" parent="1">
          <mxGeometry x="100" y="600" width="88" height="60" as="geometry" />
        </mxCell>
        <mxCell id="M5cMB6g8N9_jHiXpr-N1-13" style="edgeStyle=orthogonalEdgeStyle;rounded=0;orthogonalLoop=1;jettySize=auto;html=1;" edge="1" parent="1" source="0FFhAn88laq-6rUhL9Ml-75" target="0FFhAn88laq-6rUhL9Ml-78">
          <mxGeometry relative="1" as="geometry" />
        </mxCell>
        <mxCell id="0FFhAn88laq-6rUhL9Ml-75" value="Bác sỹ khám bệnh" style="whiteSpace=wrap;html=1;strokeWidth=2;" vertex="1" parent="1">
          <mxGeometry x="276" y="615" width="120" height="30" as="geometry" />
        </mxCell>
        <mxCell id="0FFhAn88laq-6rUhL9Ml-76" style="edgeStyle=orthogonalEdgeStyle;rounded=0;orthogonalLoop=1;jettySize=auto;html=1;" edge="1" parent="1" source="0FFhAn88laq-6rUhL9Ml-78" target="0FFhAn88laq-6rUhL9Ml-82">
          <mxGeometry relative="1" as="geometry" />
        </mxCell>
        <mxCell id="0FFhAn88laq-6rUhL9Ml-77" style="edgeStyle=orthogonalEdgeStyle;rounded=0;orthogonalLoop=1;jettySize=auto;html=1;entryX=0.5;entryY=0;entryDx=0;entryDy=0;" edge="1" parent="1" source="0FFhAn88laq-6rUhL9Ml-78" target="0FFhAn88laq-6rUhL9Ml-80">
          <mxGeometry relative="1" as="geometry" />
        </mxCell>
        <mxCell id="0FFhAn88laq-6rUhL9Ml-78" value="Quyết định&lt;br&gt;nhập viện?" style="strokeWidth=2;html=1;shape=mxgraph.flowchart.decision;whiteSpace=wrap;" vertex="1" parent="1">
          <mxGeometry x="459" y="603.89" width="130" height="52.22" as="geometry" />
        </mxCell>
        <mxCell id="M5cMB6g8N9_jHiXpr-N1-14" style="edgeStyle=orthogonalEdgeStyle;rounded=0;orthogonalLoop=1;jettySize=auto;html=1;" edge="1" parent="1" source="0FFhAn88laq-6rUhL9Ml-80" target="0FFhAn88laq-6rUhL9Ml-113">
          <mxGeometry relative="1" as="geometry" />
        </mxCell>
        <mxCell id="0FFhAn88laq-6rUhL9Ml-80" value="Không nhập viện" style="whiteSpace=wrap;html=1;strokeWidth=2;" vertex="1" parent="1">
          <mxGeometry x="464" y="710" width="120" height="31.67" as="geometry" />
        </mxCell>
        <mxCell id="0FFhAn88laq-6rUhL9Ml-81" style="edgeStyle=orthogonalEdgeStyle;rounded=0;orthogonalLoop=1;jettySize=auto;html=1;" edge="1" parent="1" source="0FFhAn88laq-6rUhL9Ml-82" target="0FFhAn88laq-6rUhL9Ml-133">
          <mxGeometry relative="1" as="geometry" />
        </mxCell>
        <mxCell id="0FFhAn88laq-6rUhL9Ml-82" value="Nhập viện" style="whiteSpace=wrap;html=1;strokeWidth=2;" vertex="1" parent="1">
          <mxGeometry x="643" y="612.14" width="120" height="35.72" as="geometry" />
        </mxCell>
        <mxCell id="0FFhAn88laq-6rUhL9Ml-89" style="edgeStyle=orthogonalEdgeStyle;rounded=0;orthogonalLoop=1;jettySize=auto;html=1;" edge="1" parent="1" source="0FFhAn88laq-6rUhL9Ml-90" target="0FFhAn88laq-6rUhL9Ml-66">
          <mxGeometry relative="1" as="geometry" />
        </mxCell>
        <mxCell id="0FFhAn88laq-6rUhL9Ml-90" value="Nhân viên nhập &lt;br&gt;liệu thông tin" style="shape=trapezoid;perimeter=trapezoidPerimeter;whiteSpace=wrap;html=1;fixedSize=1;" vertex="1" parent="1">
          <mxGeometry x="439.5" y="515" width="135" height="30" as="geometry" />
        </mxCell>
        <mxCell id="0FFhAn88laq-6rUhL9Ml-91" style="edgeStyle=orthogonalEdgeStyle;rounded=0;orthogonalLoop=1;jettySize=auto;html=1;entryX=0.5;entryY=0;entryDx=0;entryDy=0;" edge="1" parent="1" source="0FFhAn88laq-6rUhL9Ml-92" target="0FFhAn88laq-6rUhL9Ml-95">
          <mxGeometry relative="1" as="geometry" />
        </mxCell>
        <mxCell id="0FFhAn88laq-6rUhL9Ml-92" value="Thông tin chỉ &lt;br&gt;định của bác sĩ" style="shape=parallelogram;perimeter=parallelogramPerimeter;whiteSpace=wrap;html=1;fixedSize=1;" vertex="1" parent="1">
          <mxGeometry x="-6.5" y="708.49" width="120" height="36.37" as="geometry" />
        </mxCell>
        <mxCell id="0FFhAn88laq-6rUhL9Ml-97" value="CSDL bệnh &lt;br&gt;nhân" style="shape=dataStorage;whiteSpace=wrap;html=1;fixedSize=1;flipH=1;" vertex="1" parent="1">
          <mxGeometry x="-170" y="785.0000000000001" width="110" height="40" as="geometry" />
        </mxCell>
        <mxCell id="M5cMB6g8N9_jHiXpr-N1-20" value="" style="edgeStyle=orthogonalEdgeStyle;rounded=0;orthogonalLoop=1;jettySize=auto;html=1;" edge="1" parent="1" source="0FFhAn88laq-6rUhL9Ml-99" target="0FFhAn88laq-6rUhL9Ml-101">
          <mxGeometry relative="1" as="geometry" />
        </mxCell>
        <mxCell id="0FFhAn88laq-6rUhL9Ml-99" value="Phiếu thuốc" style="strokeWidth=2;html=1;shape=mxgraph.flowchart.multi-document;whiteSpace=wrap;" vertex="1" parent="1">
          <mxGeometry x="172" y="775" width="88" height="60" as="geometry" />
        </mxCell>
        <mxCell id="M5cMB6g8N9_jHiXpr-N1-21" value="" style="edgeStyle=orthogonalEdgeStyle;rounded=0;orthogonalLoop=1;jettySize=auto;html=1;" edge="1" parent="1" source="0FFhAn88laq-6rUhL9Ml-101" target="0FFhAn88laq-6rUhL9Ml-145">
          <mxGeometry relative="1" as="geometry" />
        </mxCell>
        <mxCell id="0FFhAn88laq-6rUhL9Ml-101" value="Nộp phí tại quầy thu viện phí" style="whiteSpace=wrap;html=1;rounded=0;" vertex="1" parent="1">
          <mxGeometry x="300" y="788.29" width="150" height="33.41" as="geometry" />
        </mxCell>
        <mxCell id="0FFhAn88laq-6rUhL9Ml-102" style="edgeStyle=orthogonalEdgeStyle;rounded=0;orthogonalLoop=1;jettySize=auto;html=1;exitX=0;exitY=0.5;exitDx=0;exitDy=0;entryX=0.821;entryY=0.518;entryDx=0;entryDy=0;entryPerimeter=0;" edge="1" parent="1" source="0FFhAn88laq-6rUhL9Ml-104" target="0FFhAn88laq-6rUhL9Ml-106">
          <mxGeometry relative="1" as="geometry" />
        </mxCell>
        <mxCell id="0FFhAn88laq-6rUhL9Ml-103" style="edgeStyle=orthogonalEdgeStyle;rounded=0;orthogonalLoop=1;jettySize=auto;html=1;exitX=0.5;exitY=1;exitDx=0;exitDy=0;entryX=0.5;entryY=0;entryDx=0;entryDy=0;entryPerimeter=0;" edge="1" parent="1" source="0FFhAn88laq-6rUhL9Ml-104" target="0FFhAn88laq-6rUhL9Ml-108">
          <mxGeometry relative="1" as="geometry" />
        </mxCell>
        <mxCell id="0FFhAn88laq-6rUhL9Ml-106" value="CSDL &lt;br&gt;thu ngân" style="shape=dataStorage;whiteSpace=wrap;html=1;fixedSize=1;flipH=1;" vertex="1" parent="1">
          <mxGeometry x="320" y="870.1699999999998" width="110" height="40" as="geometry" />
        </mxCell>
        <mxCell id="M5cMB6g8N9_jHiXpr-N1-23" value="" style="edgeStyle=orthogonalEdgeStyle;rounded=0;orthogonalLoop=1;jettySize=auto;html=1;" edge="1" parent="1" source="0FFhAn88laq-6rUhL9Ml-108" target="0FFhAn88laq-6rUhL9Ml-110">
          <mxGeometry relative="1" as="geometry" />
        </mxCell>
        <mxCell id="0FFhAn88laq-6rUhL9Ml-108" value="Biên lai xác nhận đã thu&amp;nbsp; &amp;nbsp;&amp;nbsp;&lt;br&gt;và hoá đơn viện phí" style="strokeWidth=2;html=1;shape=mxgraph.flowchart.multi-document;whiteSpace=wrap;" vertex="1" parent="1">
          <mxGeometry x="468.5" y="952.0399999999997" width="160" height="81.51" as="geometry" />
        </mxCell>
        <mxCell id="M5cMB6g8N9_jHiXpr-N1-27" value="" style="edgeStyle=orthogonalEdgeStyle;rounded=0;orthogonalLoop=1;jettySize=auto;html=1;" edge="1" parent="1" source="0FFhAn88laq-6rUhL9Ml-110" target="0FFhAn88laq-6rUhL9Ml-111">
          <mxGeometry relative="1" as="geometry" />
        </mxCell>
        <mxCell id="0FFhAn88laq-6rUhL9Ml-110" value="BN lãnh thuốc hoặc mua thuốc theo đơn" style="whiteSpace=wrap;html=1;strokeWidth=2;" vertex="1" parent="1">
          <mxGeometry x="276" y="975.0299999999999" width="120" height="36.82" as="geometry" />
        </mxCell>
        <mxCell id="0FFhAn88laq-6rUhL9Ml-111" value="Kết thúc" style="rounded=1;whiteSpace=wrap;html=1;fillColor=#dae8fc;strokeColor=#6c8ebf;" vertex="1" parent="1">
          <mxGeometry x="111.5" y="978.4399999999998" width="100" height="30" as="geometry" />
        </mxCell>
        <mxCell id="M5cMB6g8N9_jHiXpr-N1-15" value="" style="edgeStyle=orthogonalEdgeStyle;rounded=0;orthogonalLoop=1;jettySize=auto;html=1;" edge="1" parent="1" source="0FFhAn88laq-6rUhL9Ml-113" target="0FFhAn88laq-6rUhL9Ml-92">
          <mxGeometry relative="1" as="geometry" />
        </mxCell>
        <mxCell id="0FFhAn88laq-6rUhL9Ml-113" value="Bác sĩ nhập thông &lt;br&gt;tin chỉ định" style="shape=trapezoid;perimeter=trapezoidPerimeter;whiteSpace=wrap;html=1;fixedSize=1;" vertex="1" parent="1">
          <mxGeometry x="211.5" y="711.6700000000001" width="135" height="30" as="geometry" />
        </mxCell>
        <mxCell id="0FFhAn88laq-6rUhL9Ml-114" value="18" style="text;html=1;align=center;verticalAlign=middle;resizable=0;points=[];autosize=1;strokeColor=none;fillColor=none;" vertex="1" parent="1">
          <mxGeometry x="699.5" y="435" width="23" height="18" as="geometry" />
        </mxCell>
        <mxCell id="0FFhAn88laq-6rUhL9Ml-115" value="19" style="text;html=1;align=center;verticalAlign=middle;resizable=0;points=[];autosize=1;strokeColor=none;fillColor=none;" vertex="1" parent="1">
          <mxGeometry x="574" y="512.75" width="23" height="18" as="geometry" />
        </mxCell>
        <mxCell id="0FFhAn88laq-6rUhL9Ml-116" value="20" style="text;html=1;align=center;verticalAlign=middle;resizable=0;points=[];autosize=1;strokeColor=none;fillColor=none;" vertex="1" parent="1">
          <mxGeometry x="414" y="510" width="23" height="18" as="geometry" />
        </mxCell>
        <mxCell id="0FFhAn88laq-6rUhL9Ml-117" value="21" style="text;html=1;align=center;verticalAlign=middle;resizable=0;points=[];autosize=1;strokeColor=none;fillColor=none;" vertex="1" parent="1">
          <mxGeometry x="233" y="510" width="23" height="18" as="geometry" />
        </mxCell>
        <mxCell id="0FFhAn88laq-6rUhL9Ml-118" value="22" style="text;html=1;align=center;verticalAlign=middle;resizable=0;points=[];autosize=1;strokeColor=none;fillColor=none;" vertex="1" parent="1">
          <mxGeometry x="146.5" y="566.5" width="23" height="18" as="geometry" />
        </mxCell>
        <mxCell id="0FFhAn88laq-6rUhL9Ml-119" value="23" style="text;html=1;align=center;verticalAlign=middle;resizable=0;points=[];autosize=1;strokeColor=none;fillColor=none;" vertex="1" parent="1">
          <mxGeometry x="237" y="610" width="23" height="18" as="geometry" />
        </mxCell>
        <mxCell id="0FFhAn88laq-6rUhL9Ml-120" value="25" style="text;html=1;align=center;verticalAlign=middle;resizable=0;points=[];autosize=1;strokeColor=none;fillColor=none;" vertex="1" parent="1">
          <mxGeometry x="703.5" y="652.22" width="30" height="20" as="geometry" />
        </mxCell>
        <mxCell id="0FFhAn88laq-6rUhL9Ml-121" value="29" style="text;html=1;align=center;verticalAlign=middle;resizable=0;points=[];autosize=1;strokeColor=none;fillColor=none;" vertex="1" parent="1">
          <mxGeometry x="384" y="708.4900000000001" width="30" height="20" as="geometry" />
        </mxCell>
        <mxCell id="0FFhAn88laq-6rUhL9Ml-122" value="30" style="text;html=1;align=center;verticalAlign=middle;resizable=0;points=[];autosize=1;strokeColor=none;fillColor=none;" vertex="1" parent="1">
          <mxGeometry x="150" y="708.4899999999999" width="30" height="20" as="geometry" />
        </mxCell>
        <mxCell id="0FFhAn88laq-6rUhL9Ml-123" value="31" style="text;html=1;align=center;verticalAlign=middle;resizable=0;points=[];autosize=1;strokeColor=none;fillColor=none;" vertex="1" parent="1">
          <mxGeometry x="52" y="753.2200000000001" width="30" height="20" as="geometry" />
        </mxCell>
        <mxCell id="0FFhAn88laq-6rUhL9Ml-124" value="32" style="text;html=1;align=center;verticalAlign=middle;resizable=0;points=[];autosize=1;strokeColor=none;fillColor=none;" vertex="1" parent="1">
          <mxGeometry x="130" y="785" width="30" height="20" as="geometry" />
        </mxCell>
        <mxCell id="0FFhAn88laq-6rUhL9Ml-125" value="33" style="text;html=1;align=center;verticalAlign=middle;resizable=0;points=[];autosize=1;strokeColor=none;fillColor=none;" vertex="1" parent="1">
          <mxGeometry x="264" y="780" width="30" height="20" as="geometry" />
        </mxCell>
        <mxCell id="0FFhAn88laq-6rUhL9Ml-126" value="34" style="text;html=1;align=center;verticalAlign=middle;resizable=0;points=[];autosize=1;strokeColor=none;fillColor=none;" vertex="1" parent="1">
          <mxGeometry x="460" y="785" width="30" height="20" as="geometry" />
        </mxCell>
        <mxCell id="0FFhAn88laq-6rUhL9Ml-127" value="35" style="text;html=1;align=center;verticalAlign=middle;resizable=0;points=[];autosize=1;strokeColor=none;fillColor=none;" vertex="1" parent="1">
          <mxGeometry x="547.25" y="835" width="30" height="20" as="geometry" />
        </mxCell>
        <mxCell id="0FFhAn88laq-6rUhL9Ml-128" value="36" style="text;html=1;align=center;verticalAlign=middle;resizable=0;points=[];autosize=1;strokeColor=none;fillColor=none;" vertex="1" parent="1">
          <mxGeometry x="550" y="925.8499999999999" width="30" height="20" as="geometry" />
        </mxCell>
        <mxCell id="0FFhAn88laq-6rUhL9Ml-129" value="38" style="text;html=1;align=center;verticalAlign=middle;resizable=0;points=[];autosize=1;strokeColor=none;fillColor=none;" vertex="1" parent="1">
          <mxGeometry x="236" y="975.03" width="23" height="18" as="geometry" />
        </mxCell>
        <mxCell id="0FFhAn88laq-6rUhL9Ml-130" style="edgeStyle=orthogonalEdgeStyle;rounded=0;orthogonalLoop=1;jettySize=auto;html=1;exitX=0.5;exitY=1;exitDx=0;exitDy=0;entryX=0.5;entryY=0;entryDx=0;entryDy=0;" edge="1" parent="1" source="0FFhAn88laq-6rUhL9Ml-131" target="0FFhAn88laq-6rUhL9Ml-138">
          <mxGeometry relative="1" as="geometry" />
        </mxCell>
        <mxCell id="0FFhAn88laq-6rUhL9Ml-131" value="Thông tin bệnh nhân &lt;br&gt;nhập viện" style="shape=parallelogram;perimeter=parallelogramPerimeter;whiteSpace=wrap;html=1;fixedSize=1;rounded=0;" vertex="1" parent="1">
          <mxGeometry x="628" y="815.8900000000001" width="150" height="34.5" as="geometry" />
        </mxCell>
        <mxCell id="0FFhAn88laq-6rUhL9Ml-132" style="edgeStyle=orthogonalEdgeStyle;rounded=0;orthogonalLoop=1;jettySize=auto;html=1;entryX=0.5;entryY=0;entryDx=0;entryDy=0;" edge="1" parent="1" source="0FFhAn88laq-6rUhL9Ml-133" target="0FFhAn88laq-6rUhL9Ml-131">
          <mxGeometry relative="1" as="geometry" />
        </mxCell>
        <mxCell id="0FFhAn88laq-6rUhL9Ml-133" value="Nhân viên nhập &lt;br&gt;liệu thông tin" style="shape=trapezoid;perimeter=trapezoidPerimeter;whiteSpace=wrap;html=1;fixedSize=1;" vertex="1" parent="1">
          <mxGeometry x="635" y="719.5" width="136" height="29.89" as="geometry" />
        </mxCell>
        <mxCell id="0FFhAn88laq-6rUhL9Ml-134" value="26" style="text;html=1;align=center;verticalAlign=middle;resizable=0;points=[];autosize=1;strokeColor=none;fillColor=none;" vertex="1" parent="1">
          <mxGeometry x="711" y="773.22" width="30" height="20" as="geometry" />
        </mxCell>
        <mxCell id="0FFhAn88laq-6rUhL9Ml-135" value="27" style="text;html=1;align=center;verticalAlign=middle;resizable=0;points=[];autosize=1;strokeColor=none;fillColor=none;" vertex="1" parent="1">
          <mxGeometry x="703" y="865.8500000000001" width="30" height="20" as="geometry" />
        </mxCell>
        <mxCell id="0FFhAn88laq-6rUhL9Ml-136" style="edgeStyle=orthogonalEdgeStyle;rounded=0;orthogonalLoop=1;jettySize=auto;html=1;entryX=0;entryY=0.5;entryDx=0;entryDy=0;" edge="1" parent="1" source="0FFhAn88laq-6rUhL9Ml-138" target="0FFhAn88laq-6rUhL9Ml-140">
          <mxGeometry relative="1" as="geometry" />
        </mxCell>
        <mxCell id="0FFhAn88laq-6rUhL9Ml-137" style="edgeStyle=orthogonalEdgeStyle;rounded=0;orthogonalLoop=1;jettySize=auto;html=1;entryX=0.5;entryY=0;entryDx=0;entryDy=0;" edge="1" parent="1" source="0FFhAn88laq-6rUhL9Ml-138" target="0FFhAn88laq-6rUhL9Ml-141">
          <mxGeometry relative="1" as="geometry" />
        </mxCell>
        <mxCell id="0FFhAn88laq-6rUhL9Ml-138" value="" style="rounded=0;whiteSpace=wrap;html=1;" vertex="1" parent="1">
          <mxGeometry x="636" y="895.8500000000001" width="135" height="50" as="geometry" />
        </mxCell>
        <mxCell id="0FFhAn88laq-6rUhL9Ml-139" value="Phần mềm quản lý&lt;br&gt;bệnh nhân" style="rounded=1;whiteSpace=wrap;html=1;" vertex="1" parent="1">
          <mxGeometry x="643.5" y="905.8500000000001" width="120" height="30" as="geometry" />
        </mxCell>
        <mxCell id="0FFhAn88laq-6rUhL9Ml-140" value="CSDL bệnh &lt;br&gt;nhân" style="shape=dataStorage;whiteSpace=wrap;html=1;fixedSize=1;" vertex="1" parent="1">
          <mxGeometry x="808" y="900.3500000000001" width="110" height="40" as="geometry" />
        </mxCell>
        <mxCell id="0FFhAn88laq-6rUhL9Ml-141" value="Kết thúc" style="rounded=1;whiteSpace=wrap;html=1;fillColor=#dae8fc;strokeColor=#6c8ebf;" vertex="1" parent="1">
          <mxGeometry x="653.5" y="1001.22" width="100" height="30" as="geometry" />
        </mxCell>
        <mxCell id="0FFhAn88laq-6rUhL9Ml-142" value="28" style="text;html=1;align=center;verticalAlign=middle;resizable=0;points=[];autosize=1;strokeColor=none;fillColor=none;" vertex="1" parent="1">
          <mxGeometry x="704" y="961.8500000000001" width="30" height="20" as="geometry" />
        </mxCell>
        <mxCell id="0FFhAn88laq-6rUhL9Ml-143" value="17" style="text;html=1;align=center;verticalAlign=middle;resizable=0;points=[];autosize=1;strokeColor=none;fillColor=none;" vertex="1" parent="1">
          <mxGeometry x="537" y="385" width="23" height="18" as="geometry" />
        </mxCell>
        <mxCell id="M5cMB6g8N9_jHiXpr-N1-22" value="" style="edgeStyle=orthogonalEdgeStyle;rounded=0;orthogonalLoop=1;jettySize=auto;html=1;" edge="1" parent="1" source="0FFhAn88laq-6rUhL9Ml-145" target="0FFhAn88laq-6rUhL9Ml-105">
          <mxGeometry relative="1" as="geometry" />
        </mxCell>
        <mxCell id="0FFhAn88laq-6rUhL9Ml-145" value="Thông tin &lt;br&gt;phí" style="shape=parallelogram;perimeter=parallelogramPerimeter;whiteSpace=wrap;html=1;fixedSize=1;" vertex="1" parent="1">
          <mxGeometry x="487.75" y="787.04" width="120" height="35.92" as="geometry" />
        </mxCell>
        <mxCell id="0FFhAn88laq-6rUhL9Ml-146" value="37" style="text;html=1;align=center;verticalAlign=middle;resizable=0;points=[];autosize=1;strokeColor=none;fillColor=none;" vertex="1" parent="1">
          <mxGeometry x="420" y="973.03" width="30" height="20" as="geometry" />
        </mxCell>
        <mxCell id="M5cMB6g8N9_jHiXpr-N1-3" value="" style="group" connectable="0" vertex="1" parent="1">
          <mxGeometry x="600" y="201" width="135" height="50" as="geometry" />
        </mxCell>
        <mxCell id="0FFhAn88laq-6rUhL9Ml-30" value="" style="rounded=0;whiteSpace=wrap;html=1;" vertex="1" parent="M5cMB6g8N9_jHiXpr-N1-3">
          <mxGeometry width="135" height="50" as="geometry" />
        </mxCell>
        <mxCell id="0FFhAn88laq-6rUhL9Ml-31" value="Phần mềm quản lý bệnh nhân" style="rounded=1;whiteSpace=wrap;html=1;" vertex="1" parent="M5cMB6g8N9_jHiXpr-N1-3">
          <mxGeometry x="7.5" y="10" width="120" height="30" as="geometry" />
        </mxCell>
        <mxCell id="M5cMB6g8N9_jHiXpr-N1-5" value="" style="group" connectable="0" vertex="1" parent="1">
          <mxGeometry x="217" y="380" width="135" height="50" as="geometry" />
        </mxCell>
        <mxCell id="0FFhAn88laq-6rUhL9Ml-57" value="" style="rounded=0;whiteSpace=wrap;html=1;" vertex="1" parent="M5cMB6g8N9_jHiXpr-N1-5">
          <mxGeometry width="135" height="50" as="geometry" />
        </mxCell>
        <mxCell id="0FFhAn88laq-6rUhL9Ml-58" value="Phần mềm quản lý&lt;br&gt;thu ngân" style="rounded=1;whiteSpace=wrap;html=1;" vertex="1" parent="M5cMB6g8N9_jHiXpr-N1-5">
          <mxGeometry x="7.5" y="10" width="120" height="30" as="geometry" />
        </mxCell>
        <mxCell id="M5cMB6g8N9_jHiXpr-N1-6" value="" style="group" connectable="0" vertex="1" parent="1">
          <mxGeometry x="600.5" y="470" width="135" height="120" as="geometry" />
        </mxCell>
        <mxCell id="0FFhAn88laq-6rUhL9Ml-84" value="" style="rounded=0;whiteSpace=wrap;html=1;" vertex="1" parent="M5cMB6g8N9_jHiXpr-N1-6">
          <mxGeometry width="135" height="120" as="geometry" />
        </mxCell>
        <mxCell id="0FFhAn88laq-6rUhL9Ml-85" value="Xét nghiệm" style="rounded=1;whiteSpace=wrap;html=1;" vertex="1" parent="M5cMB6g8N9_jHiXpr-N1-6">
          <mxGeometry x="8.25" y="10" width="120" height="20" as="geometry" />
        </mxCell>
        <mxCell id="0FFhAn88laq-6rUhL9Ml-86" value="Chụp phim" style="rounded=1;whiteSpace=wrap;html=1;" vertex="1" parent="M5cMB6g8N9_jHiXpr-N1-6">
          <mxGeometry x="8" y="38" width="120" height="20" as="geometry" />
        </mxCell>
        <mxCell id="0FFhAn88laq-6rUhL9Ml-87" value="Siêu âm" style="rounded=1;whiteSpace=wrap;html=1;" vertex="1" parent="M5cMB6g8N9_jHiXpr-N1-6">
          <mxGeometry x="8.25" y="68" width="120" height="20" as="geometry" />
        </mxCell>
        <mxCell id="0FFhAn88laq-6rUhL9Ml-88" value="Các xét nghiệm khác" style="rounded=1;whiteSpace=wrap;html=1;" vertex="1" parent="M5cMB6g8N9_jHiXpr-N1-6">
          <mxGeometry x="8" y="95" width="120" height="20" as="geometry" />
        </mxCell>
        <mxCell id="M5cMB6g8N9_jHiXpr-N1-8" style="edgeStyle=orthogonalEdgeStyle;rounded=0;orthogonalLoop=1;jettySize=auto;html=1;" edge="1" parent="1" source="0FFhAn88laq-6rUhL9Ml-84" target="0FFhAn88laq-6rUhL9Ml-90">
          <mxGeometry relative="1" as="geometry" />
        </mxCell>
        <mxCell id="M5cMB6g8N9_jHiXpr-N1-9" value="" style="group" connectable="0" vertex="1" parent="1">
          <mxGeometry x="76.5" y="505" width="135" height="50" as="geometry" />
        </mxCell>
        <mxCell id="0FFhAn88laq-6rUhL9Ml-69" value="" style="rounded=0;whiteSpace=wrap;html=1;" vertex="1" parent="M5cMB6g8N9_jHiXpr-N1-9">
          <mxGeometry width="135" height="50" as="geometry" />
        </mxCell>
        <mxCell id="0FFhAn88laq-6rUhL9Ml-70" value="Phần mềm quản lý&lt;br&gt;bệnh nhân" style="rounded=1;whiteSpace=wrap;html=1;" vertex="1" parent="M5cMB6g8N9_jHiXpr-N1-9">
          <mxGeometry x="7.5" y="10" width="120" height="30" as="geometry" />
        </mxCell>
        <mxCell id="M5cMB6g8N9_jHiXpr-N1-16" value="" style="group" connectable="0" vertex="1" parent="1">
          <mxGeometry x="-14" y="780" width="135" height="50" as="geometry" />
        </mxCell>
        <mxCell id="0FFhAn88laq-6rUhL9Ml-95" value="" style="rounded=0;whiteSpace=wrap;html=1;" vertex="1" parent="M5cMB6g8N9_jHiXpr-N1-16">
          <mxGeometry width="135" height="50" as="geometry" />
        </mxCell>
        <mxCell id="0FFhAn88laq-6rUhL9Ml-96" value="Phần mềm quản lý&lt;br&gt;bệnh nhân" style="rounded=1;whiteSpace=wrap;html=1;" vertex="1" parent="M5cMB6g8N9_jHiXpr-N1-16">
          <mxGeometry x="7.5" y="10" width="120" height="30" as="geometry" />
        </mxCell>
        <mxCell id="M5cMB6g8N9_jHiXpr-N1-17" value="" style="edgeStyle=orthogonalEdgeStyle;rounded=0;orthogonalLoop=1;jettySize=auto;html=1;" edge="1" parent="1" source="0FFhAn88laq-6rUhL9Ml-96" target="0FFhAn88laq-6rUhL9Ml-97">
          <mxGeometry relative="1" as="geometry" />
        </mxCell>
        <mxCell id="M5cMB6g8N9_jHiXpr-N1-18" style="edgeStyle=orthogonalEdgeStyle;rounded=0;orthogonalLoop=1;jettySize=auto;html=1;" edge="1" parent="1" source="0FFhAn88laq-6rUhL9Ml-95" target="0FFhAn88laq-6rUhL9Ml-99">
          <mxGeometry relative="1" as="geometry" />
        </mxCell>
        <mxCell id="M5cMB6g8N9_jHiXpr-N1-19" value="" style="group" connectable="0" vertex="1" parent="1">
          <mxGeometry x="481" y="865.85" width="135" height="50" as="geometry" />
        </mxCell>
        <mxCell id="0FFhAn88laq-6rUhL9Ml-104" value="" style="rounded=0;whiteSpace=wrap;html=1;" vertex="1" parent="M5cMB6g8N9_jHiXpr-N1-19">
          <mxGeometry width="135" height="50" as="geometry" />
        </mxCell>
        <mxCell id="0FFhAn88laq-6rUhL9Ml-105" value="Phần mềm quản lý&lt;br&gt;thu ngân" style="rounded=1;whiteSpace=wrap;html=1;" vertex="1" parent="M5cMB6g8N9_jHiXpr-N1-19">
          <mxGeometry x="7.5" y="10" width="120" height="30" as="geometry" />
        </mxCell>
      </root>
    </mxGraphModel>
  </diagram>
</mxfile>
